<svg id="Layer_1" data-name="Layer 1" xmlns="http://www.w3.org/2000/svg" viewBox="0 0 432.7 432.71"><defs><style>.cls-1{fill:#fff;}</style></defs><path class="cls-1" d="M408.52,63.65h-257a87.83,87.83,0,0,0-87.83,87.83v257a87.82,87.82,0,0,0,87.83,87.82h257a87.82,87.82,0,0,0,87.83-87.82v-257A87.83,87.83,0,0,0,408.52,63.65ZM197.31,411.38H149.9V232h47.41ZM173.26,205.79c-16.23,0-26.32-11.5-26.32-25.06,0-13.77,10.4-25.07,26.85-25.07s26.48,11.13,26.69,25.07C200.48,194.29,190.39,205.79,173.26,205.79ZM425.79,411.38H378.38v-97c0-28.34-11.33-48.65-38.65-48.65-20.82,0-34.55,14.5-39.72,28.16-1.48,3.63-2.11,9.06-2.11,13.75V411.38H250.49V286.28c0-20.87-.58-38.87-1.48-54.29H290.5l2.31,28.89H294c7.75-13.78,28.61-33.3,62.08-33.3,31.73,0,69.74,19.1,69.74,80.9Z" transform="translate(-63.65 -63.65)"/></svg>