<svg id="Layer_1" data-name="Layer 1" xmlns="http://www.w3.org/2000/svg" viewBox="0 0 499.6 455.22"><defs><style>.cls-1{fill:#00e7ff;}</style></defs><path class="cls-1" d="M369.81,304.56q-.92,17.42-4.92,24.3c-2.67,4.59-5.58,6.88-8.7,6.88s-5.86-1.86-8.48-5.6q-5.15-7.26-9.74-27.09-6.42-27.71-11.33-36.71a42.33,42.33,0,0,0-13.06-14.68q-8.16-5.67-29.75-11.58,29.67-3,43.52-9.91t21.19-18.47a48.22,48.22,0,0,0,7.34-26.42q0-24.81-18.54-40.11T285.2,129.88H169.55v11.36H191.5q7.11,0,10.6,2.87t3.48,8.63V331.66a9.76,9.76,0,0,1-3.41,7.87q-3.4,2.88-10.67,2.87H169.55v11.36h104V342.4H252.05q-7.73,0-11.36-2.87-2.87-2.28-2.87-7.87v-88h18.31q14.53,0,25,5.15t15.36,13.62q4.92,8.47,7.19,28.61,3.94,34.67,7.12,42.84,4.08,10.89,12.18,16.5a32.85,32.85,0,0,0,19.15,5.6q35.11,0,38-51.47Zm-105.5-71.75H237.82V152.27q0-6,4.24-8.54t22.1-2.49q27.09,0,36.32,3.78t14.91,14q5.69,10.27,5.68,28,0,25.68-15.06,35.73T264.31,232.81Z" transform="translate(-20.2 -22.39)"/><path class="cls-1" d="M508.59,208,425.64,64.36a84.16,84.16,0,0,0-72.69-42H187.05a84.16,84.16,0,0,0-72.69,42L31.41,208a84.16,84.16,0,0,0,0,83.94l83,143.67a84.16,84.16,0,0,0,72.69,42H353a84.16,84.16,0,0,0,72.69-42L508.59,292A84.16,84.16,0,0,0,508.59,208ZM491.27,282,408.32,425.64a64.11,64.11,0,0,1-55.37,32H187.05a64.11,64.11,0,0,1-55.37-32L48.73,282a64.09,64.09,0,0,1,0-63.94l83-143.67a64.11,64.11,0,0,1,55.37-32H353a64.11,64.11,0,0,1,55.37,32L491.27,218A64.09,64.09,0,0,1,491.27,282Z" transform="translate(-20.2 -22.39)"/></svg>